<?xml version="1.0" encoding="UTF-8"?>
<!DOCTYPE svg PUBLIC "-//W3C//DTD SVG 1.1//EN" "http://www.w3.org/Graphics/SVG/1.1/DTD/svg11.dtd">
<!-- Creator: CorelDRAW (Evaluation Version) -->
<svg xmlns="http://www.w3.org/2000/svg" xml:space="preserve" width="200mm" height="35mm" version="1.1" style="shape-rendering:geometricPrecision; text-rendering:geometricPrecision; image-rendering:optimizeQuality; fill-rule:evenodd; clip-rule:evenodd"
viewBox="0 0 20000 3500"
 xmlns:xlink="http://www.w3.org/1999/xlink"
 xmlns:xodm="http://www.corel.com/coreldraw/odm/2003">
 <defs>
  <style type="text/css">
   <![CDATA[
    .str0 {stroke:#FFED00;stroke-width:50;stroke-miterlimit:22.9256}
    .str1 {stroke:#FFED00;stroke-width:90;stroke-linecap:round;stroke-linejoin:round;stroke-miterlimit:10}
    .str3 {stroke:#FFED00;stroke-width:90;stroke-linecap:round;stroke-linejoin:round;stroke-miterlimit:10}
    .str2 {stroke:#FFED00;stroke-width:20;stroke-linecap:round;stroke-linejoin:round;stroke-miterlimit:10}
    .fil2 {fill:none;fill-rule:nonzero}
    .fil0 {fill:#FFED00}
    .fil1 {fill:#FFED00;fill-rule:nonzero}
   ]]>
  </style>
 </defs>
 <g id="Layer_x0020_1">
  <metadata id="CorelCorpID_0Corel-Layer"/>
  <g id="_2000015787024">
   <path class="fil0" d="M14605.78 667.11c20.57,66.94 41.13,133.88 61.69,200.82 66.94,20.56 133.87,41.13 200.81,61.69 -66.94,20.56 -133.87,41.12 -200.81,61.69 -20.56,66.93 -41.13,133.87 -61.69,200.81 -20.56,-66.94 -41.12,-133.88 -61.69,-200.81 -66.93,-20.57 -133.87,-41.13 -200.81,-61.69 66.94,-20.57 133.88,-41.13 200.82,-61.69 20.56,-66.94 41.12,-133.88 61.68,-200.82z"/>
   <path class="fil1 str0" d="M1867.84 2882.97l-68.58 0 -530.86 -1285.24c-30.48,-71.12 -55.03,-133.77 -73.66,-187.96l-25.4 193.04 -208.28 1374.14 -124.46 0 299.72 -1831.34 71.12 0 566.42 1346.2c28.79,62.65 51.65,121.92 68.58,177.8 5.08,-18.63 31.33,-77.05 78.74,-175.26l632.46 -1348.74 68.58 0 276.86 1831.34 -127 0 -198.12 -1379.22c-13.55,-86.36 -20.32,-151.55 -20.32,-195.58 -1.69,1.69 -5.5,9.74 -11.43,24.13 -5.93,14.39 -16.09,38.1 -30.48,71.12 -14.39,33.02 -29.21,67.31 -44.45,102.87l-599.44 1282.7zm1579.88 -477.52l-236.22 571.5 -119.38 0 690.88 -1658.62 68.58 0 695.96 1658.62 -129.54 0 -238.76 -571.5 -731.52 0zm363.22 -899.16c-25.4,76.2 -48.26,139.7 -68.58,190.5l-254 609.6 650.24 0 -251.46 -607.06c-38.95,-94.83 -64.35,-159.17 -76.2,-193.04zm1153.16 899.16l-236.22 571.5 -119.38 0 690.88 -1658.62 68.58 0 695.96 1658.62 -129.54 0 -238.76 -571.5 -731.52 0zm363.22 -899.16c-25.4,76.2 -48.26,139.7 -68.58,190.5l-254 609.6 650.24 0 -251.46 -607.06c-38.95,-94.83 -64.35,-159.17 -76.2,-193.04zm1729.74 -99.06c-187.96,0 -345.86,71.54 -473.71,214.63 -127.85,143.09 -191.77,318.77 -191.77,527.05 0,208.28 71.97,384.81 215.9,529.59 143.93,144.78 313.69,217.17 509.27,217.17 195.58,0 347.56,-22.86 455.93,-68.58l0 -678.18 116.84 0 0 731.52c-132.08,81.28 -319.19,121.92 -561.34,121.92 -242.15,0 -446.19,-82.13 -612.14,-246.38 -165.95,-164.25 -248.92,-366.18 -248.92,-605.79 0,-239.61 74.93,-440.69 224.79,-603.25 149.86,-162.56 343.32,-243.84 580.39,-243.84 191.35,0 378.46,29.63 561.34,88.9l-30.48 96.52c-176.11,-54.19 -358.14,-81.28 -546.1,-81.28zm1186.18 1569.72l0 -1648.46 116.84 0 0 1648.46 -116.84 0zm1059.18 -1577.34c-91.44,0 -165.95,22.01 -223.52,66.04 -57.57,44.03 -86.36,105.83 -86.36,185.42 0,91.44 38.1,173.57 114.3,246.38 54.19,52.49 124.04,107.95 209.55,166.37 85.51,58.42 144.36,100.33 176.53,125.73 32.17,25.4 71.12,60.11 116.84,104.14 82.97,82.97 124.46,178.65 124.46,287.02 0,140.55 -46.99,246.8 -140.97,318.77 -93.98,71.97 -225.21,107.95 -393.7,107.95 -168.49,0 -309.46,-44.03 -422.91,-132.08l60.96 -88.9c115.15,77.89 237.07,116.84 365.76,116.84 128.69,0 229.02,-27.09 300.99,-81.28 71.97,-54.19 107.95,-130.39 107.95,-228.6 0,-84.67 -36.41,-162.56 -109.22,-233.68 -50.8,-50.8 -118.96,-105.83 -204.47,-165.1 -85.51,-59.27 -145.2,-102.02 -179.07,-128.27 -33.87,-26.25 -73.66,-61.38 -119.38,-105.41 -86.36,-86.36 -129.54,-186.27 -129.54,-299.72 0,-113.45 40.22,-202.35 120.65,-266.7 80.43,-64.35 191.77,-96.52 334.01,-96.52 142.24,0 270.09,27.94 383.54,83.82l-43.18 93.98c-104.99,-50.8 -226.06,-76.2 -363.22,-76.2zm1193.8 33.02l-558.8 0 0 -104.14 1231.9 0 0 104.14 -558.8 0 0 1544.32 -114.3 0 0 -1544.32zm942.34 972.82l-236.22 571.5 -119.38 0 690.88 -1658.62 68.58 0 695.96 1658.62 -129.54 0 -238.76 -571.5 -731.52 0zm363.22 -899.16c-25.4,76.2 -48.26,139.7 -68.58,190.5l-254 609.6 650.24 0 -251.46 -607.06c-38.95,-94.83 -64.35,-159.17 -76.2,-193.04zm922.02 1470.66l0 -134.62 134.62 0 0 134.62 -134.62 0zm515.62 0l0 -1648.46 845.82 0 0 101.6 -728.98 0 0 599.44 665.48 0 0 99.06 -665.48 0 0 848.36 -116.84 0zm1297.94 0l0 -1648.46 116.84 0 0 1648.46 -116.84 0z"/>
   <path class="fil1 str1" d="M18133.87 839.71l1.2 1.16c-0.41,-0.4 -0.81,-0.79 -1.2,-1.16z"/>
   <path class="fil1 str2" d="M18204.81 1784.47c15.63,136.54 -227.88,382.46 -252.53,393.35 -58.14,19.57 -142.85,9.83 -186.44,-24.38 -169.62,-154.73 -357.79,-275.83 -543.67,-405.83 -58.31,-32.96 -127.18,-44.62 -190.12,-7.14 -53.84,39.57 -14.6,106.54 17.97,147.22 63.21,78.85 105.5,125.21 165.62,187.19 3.31,5.54 112.92,111.77 150.79,149.39 35.95,22.48 848.25,736.91 1379.15,970.85l416.75 -721.81c-53.56,-50.92 -92.32,-103.06 -122.95,-167.52 -20.72,-47.82 -201.56,-865.62 -204.87,-871.17 -49.86,-135.77 -194.11,-410.46 -204.02,-427.11 -81.1,-162.29 -198.94,-295.18 -302.93,-443.86 -6.61,-11.1 -24.66,-15.39 -45.12,-10.74 -17.42,5.37 -38.93,19.45 -41.97,32.36 -2.23,9.51 1.3,28.32 6.39,36.5l83.07 167.52c-91.13,-142.05 -180.17,-284.08 -229.85,-363.71 -26.08,-41.81 -40.98,-92.57 -89.18,-105.73 -25.31,-6.89 -74.65,38.33 -65.38,62.5 27.9,146.22 188.04,453.07 189.59,458.48 -47.84,-45.06 -488.95,-238.79 -660.42,-313.2 -28.15,-12.2 -59.21,12.7 -53.13,42.55l1.44 7.06c5.44,26.74 20.96,50.19 43.51,65.66 114.05,78.38 469.87,325.11 512.67,382.39 51.04,68.35 146.51,258.5 146.51,258.5l60.99 11.64c-155.82,-27.55 -369.29,-84.72 -522.65,-121.27 -9.02,-2.16 -13.8,-4.24 -27.63,-1.36 -170.58,71.28 -355.1,181.12 -567.79,307.93 -31.88,11.45 -42.51,32.81 -26.87,46.08 23.23,42.79 89.1,38.05 129.68,35.62 34.22,5.1 212.99,-39.16 277.43,-67.4 20.46,-4.65 133.67,-89.69 227.17,-62.63 110.73,16.81 349.93,108.5 445.25,164.55 49.32,30.81 76.65,89.73 85.95,144.4 0.59,13.95 -0.29,28.39 -2.41,43.12z"/>
   <path class="fil2 str3" d="M18499.97 1412.31c0,0 -306.55,-516.53 -366.1,-572.6"/>
   <path class="fil2 str1" d="M18680.25 1356.65c-22.72,-53.77 -73.52,-158.69 -73.52,-158.69 -48.98,-58.47 -164.5,-233.6 -276.8,-408.67m-194.82 51.54c-0.39,-0.36 -0.81,-0.74 -1.24,-1.12"/>
   <path class="fil0" d="M17262.43 1549.67l86.76 21.62 994.89 247.88c13.29,3.32 23.55,11 30.48,22.81 6.94,11.83 8.62,24.52 5.02,37.74l-41.5 152.16c-3.61,13.23 -11.51,23.3 -23.48,29.98 -11.97,6.68 -24.68,8.07 -37.84,4.17l-1040.34 -308.47 -2230.41 -661.34c-25.55,-7.58 -40.39,-34.26 -33.4,-59.97l1.94 -7.14c6.99,-25.74 33.35,-41.16 59.23,-34.72l2228.65 555.28z"/>
  </g>
 </g>
</svg>
